# xmcd
#
# Track frame offsets:
#	150
#	12398
#	24397
#	37796
#	47252
#	60684
#	71684
#	83323
#	95724
#	108499
#	120039
#	131372
#	144308
#	156184
#	168522
#	179694
#	194599
#	208043
#	227443
#	261368
#	280360
#
# Disc length: 3886
#
# Revision: 1
# Processed by: cddbd v1.5.1PL0 Copyright (c) Steve Scherf et al.
# Submitted via: dBpowerAMP V4.0
# Normalized: r0:TDELIM( - )
#
DISCID=190f2c15
DTITLE=Various Artist - Soul Satisfaction Vol 3 (Motowm Delights Soft Centered Soul)
DYEAR=2002
DGENRE=Tamla Motown
TTITLE0=Liz Land - Midnight Johney.
TTITLE1=Stevie Wonder - Teach Me Tonight.
TTITLE2=Earl Van Dyke @ the Soul Brothers - All For You.
TTITLE3=Four Tops - Love Feels Like fire
TTITLE4=Tommy Good - Baby I Miss You.
TTITLE5=Four Tops - Where Did You Go
TTITLE6=Chris Clark - Don't Be To Long
TTITLE7=Marvin Gaye - No Good Without You
TTITLE8=Four Tops - Tea House In China Town.
TTITLE9=Marvin Gaye - When I Had Your Love.
TTITLE10=Martha Reeves @ the Vandellas - I'll Follow You
TTITLE11=Frank Wilson - Till You Were Mine
TTITLE12=The Temptation - [Lonelliness Made Me Relise] It's You That I Need.
TTITLE13=The Isley Brothers - It's Out Of The Question.
TTITLE14=Chuck Jackson - What Am I Gonna Do Without You.
TTITLE15=Diana Ross @ the Supremes - You Been So Wonderful To Me.
TTITLE16=Four Tops - Don't Bring Back Memories
TTITLE17=David Ruffin - Questions
TTITLE18=Eddie Kendricks - Girl, You Need A Change Of Mine.
TTITLE19=Jermaine Jackson - Theres A Better Way.
TTITLE20=Jr. Walker @ the Allstars - What Dose It Take  [To Win Your Heart]
EXTD=
EXTT0=
EXTT1=
EXTT2=
EXTT3=
EXTT4=
EXTT5=
EXTT6=
EXTT7=
EXTT8=
EXTT9=
EXTT10=
EXTT11=
EXTT12=
EXTT13=
EXTT14=
EXTT15=
EXTT16=
EXTT17=
EXTT18=
EXTT19=
EXTT20=
PLAYORDER=
